# xmcd
#
# Track frame offsets:
#	150
#	19234
#	31111
#	45873
#	57745
#	70600
#	84029
#	95981
#	107398
#	119998
#
# Disc length: 1761 seconds
#
# Revision: 0
# Processed by: cddbd v1.5.2PL0 Copyright (c) Steve Scherf et al.
# Submitted via: audiograbber 1.83.01
#
DISCID=7c06df0a
DTITLE=Estela Nuñez - Tesoros De Coleccion 3.2
DYEAR=2006
DGENRE=Ballad
TTITLE0=La Del Rebozo Blanco
TTITLE1=Por Mi Orgullo
TTITLE2=Golondrina Presumida
TTITLE3=Mi Ranchito
TTITLE4=Cien Años
TTITLE5=Al Pie De La Montaña
TTITLE6=El Sinaloense
TTITLE7=Cariño Nuevo
TTITLE8=Paloma Sin Nido
TTITLE9=Con Un Poco De Amor
EXTD=MS®
EXTT0=MS®
EXTT1=
EXTT2=
EXTT3=
EXTT4=
EXTT5=
EXTT6=
EXTT7=
EXTT8=
EXTT9=
PLAYORDER=
